<?xml version="1.0" encoding="UTF-8" standalone="no"?>
<!-- Created with Inkscape (http://www.inkscape.org/) -->

<svg
   width="84.852806mm"
   height="84.852806mm"
   viewBox="0 0 84.852806 84.852806"
   version="1.1"
   id="svg1"
   inkscape:version="1.3 (0e150ed6c4, 2023-07-21)"
   sodipodi:docname="earth.rain.svg"
   xmlns:inkscape="http://www.inkscape.org/namespaces/inkscape"
   xmlns:sodipodi="http://sodipodi.sourceforge.net/DTD/sodipodi-0.dtd"
   xmlns="http://www.w3.org/2000/svg"
   xmlns:svg="http://www.w3.org/2000/svg">
  <sodipodi:namedview
     id="namedview1"
     pagecolor="#ffffff"
     bordercolor="#000000"
     borderopacity="0.25"
     inkscape:showpageshadow="2"
     inkscape:pageopacity="0.0"
     inkscape:pagecheckerboard="0"
     inkscape:deskcolor="#d1d1d1"
     inkscape:document-units="mm"
     inkscape:zoom="2.0485264"
     inkscape:cx="160.1151"
     inkscape:cy="159.87102"
     inkscape:window-width="2560"
     inkscape:window-height="1009"
     inkscape:window-x="-8"
     inkscape:window-y="-8"
     inkscape:window-maximized="1"
     inkscape:current-layer="layer1" />
  <defs
     id="defs1" />
  <g
     inkscape:label="Layer 1"
     inkscape:groupmode="layer"
     id="layer1"
     transform="translate(-62.573597,-106.07359)">
    <rect
       style="fill:none;stroke:#000000;stroke-width:1.25323;stroke-linecap:round;stroke-dasharray:none;stroke-opacity:1"
       id="rect5"
       width="58.746765"
       height="58.746769"
       x="1.3857613"
       y="-208.62495"
       transform="rotate(135)" />
    <g
       id="g3"
       transform="matrix(0,1,1,0,-70.435099,88.646225)">
      <path
         style="fill:none;stroke:#000000;stroke-width:1;stroke-linecap:round;stroke-dasharray:none;stroke-opacity:1"
         d="m 34.512166,168.70184 c 0,0 5.564991,9.02852 10.074314,9.02852 4.509324,0 5.566677,-9.15181 10.074315,-9.02852 4.50385,0.12319 5.053627,9.44227 9.557683,9.55768 4.753757,0.12181 5.835704,-9.58445 10.590946,-9.55768 4.570001,0.0257 5.504338,9.32898 10.074315,9.29937 4.507086,-0.0292 9.815999,-9.29937 9.815999,-9.29937"
         id="path1-82"
         sodipodi:nodetypes="csssssc" />
      <path
         style="fill:none;stroke:#000000;stroke-width:1;stroke-linecap:round;stroke-dasharray:none;stroke-opacity:1"
         d="m 34.577245,177.90243 c 0,0 5.564991,9.02852 10.074314,9.02852 4.509324,0 5.566677,-9.15181 10.074315,-9.02852 4.50385,0.12319 5.053627,9.44227 9.557683,9.55768 4.753757,0.12181 5.835704,-9.58445 10.590946,-9.55768 4.570001,0.0257 5.504338,9.32898 10.074315,9.29937 4.507086,-0.0292 9.815999,-9.29937 9.815999,-9.29937"
         id="path1-8-2"
         sodipodi:nodetypes="csssssc" />
    </g>
  </g>
</svg>
