<?xml version="1.0" encoding="UTF-8" standalone="no"?>
<!-- Generator: Adobe Illustrator 13.0.0, SVG Export Plug-In . SVG Version: 6.00 Build 14576)  -->

<svg
   version="1.1"
   x="0px"
   y="0px"
   width="516.316px"
   height="515.691px"
   viewBox="0 0 516.316 515.691"
   enable-background="new 0 0 516.316 515.691"
   xml:space="preserve"
   id="svg36"
   sodipodi:docname="sriyantra1.svg"
   inkscape:version="1.3.2 (091e20e, 2023-11-25, custom)"
   xmlns:inkscape="http://www.inkscape.org/namespaces/inkscape"
   xmlns:sodipodi="http://sodipodi.sourceforge.net/DTD/sodipodi-0.dtd"
   xmlns="http://www.w3.org/2000/svg"
   xmlns:svg="http://www.w3.org/2000/svg"><defs
   id="defs36" /><sodipodi:namedview
   id="namedview36"
   pagecolor="#ffffff"
   bordercolor="#000000"
   borderopacity="0.25"
   inkscape:showpageshadow="2"
   inkscape:pageopacity="0.0"
   inkscape:pagecheckerboard="0"
   inkscape:deskcolor="#d1d1d1"
   inkscape:zoom="1.5765255"
   inkscape:cx="258.16264"
   inkscape:cy="257.84549"
   inkscape:window-width="2560"
   inkscape:window-height="1009"
   inkscape:window-x="-8"
   inkscape:window-y="-8"
   inkscape:window-maximized="1"
   inkscape:current-layer="svg36" />
<g
   id="Layer_1">
	<polygon
   fill="none"
   stroke="#000000"
   stroke-width="3"
   points="36.817,360.587 36.817,305.254 60.062,305.254 60.062,455.9    210.75,455.9 210.75,478.875 155.416,478.875 155.416,514.191 360.816,514.191 360.816,478.875 305.483,478.875 305.483,455.9    456.462,455.9 456.462,305.213 479.499,305.213 479.499,360.546 514.816,360.546 514.816,155.146 479.499,155.146 479.499,210.479    456.462,210.479 456.462,59.5 305.524,59.5 305.524,36.816 360.858,36.816 360.858,1.5 155.458,1.5 155.458,36.816 210.792,36.816    210.792,59.5 60.062,59.5 60.062,210.521 36.817,210.521 36.817,155.187 1.5,155.187 1.5,360.587  "
   id="polygon1" />
	<polygon
   fill="none"
   stroke="#000000"
   stroke-width="5"
   points="29.617,353.388 29.617,298.054 67.262,298.054 67.262,448.7    217.95,448.7 217.95,486.075 162.616,486.075 162.616,506.991 353.616,506.991 353.616,486.075 298.282,486.075 298.282,448.7    449.263,448.7 449.263,298.013 486.7,298.013 486.7,353.347 507.616,353.347 507.616,162.346 486.7,162.346 486.7,217.68    449.263,217.68 449.263,66.7 298.325,66.7 298.325,29.617 353.658,29.617 353.658,8.7 162.658,8.7 162.658,29.617 217.992,29.617    217.992,66.7 67.262,66.7 67.262,217.721 29.617,217.721 29.617,162.387 8.7,162.387 8.7,353.388  "
   id="polygon2" />
	<circle
   fill="none"
   stroke="#000000"
   stroke-width="5"
   cx="258.158"
   cy="257.846"
   r="185.969"
   id="circle2" />
	<circle
   fill="none"
   stroke="#000000"
   stroke-width="3"
   cx="258.158"
   cy="257.845"
   r="142.448"
   id="circle3" />
	<circle
   fill="none"
   stroke="#000000"
   stroke-width="2"
   cx="258.158"
   cy="257.846"
   r="180.312"
   id="circle4" />
	<circle
   fill="none"
   stroke="#000000"
   stroke-width="3"
   cx="258.158"
   cy="257.846"
   r="117.224"
   id="circle5" />
</g>
<g
   id="Layer_5">
	<path
   fill="none"
   stroke="#000000"
   stroke-width="2"
   d="M257.946,437.61c0,0.114,0,0.219,0,0.301   c0.026-0.052,0.054-0.099,0.08-0.15c0.024,0.048,0.051,0.093,0.075,0.141c0-0.076,0-0.177,0-0.281   c9.589-18.88,30.047-19.978,27.759-39.209c-20.722,0.662-23.284,5.273-27.828,7.621c-4.553-2.345-7.097-6.967-27.845-7.631   C227.9,417.635,248.358,418.731,257.946,437.61z"
   id="path5" />
	<path
   fill="none"
   stroke="#000000"
   stroke-width="2"
   d="M78.563,257.659c-0.113,0-0.217,0-0.299,0   c0.051,0.025,0.099,0.054,0.149,0.079c-0.048,0.024-0.092,0.051-0.141,0.075c0.077,0,0.177,0,0.282,0   c18.879,9.589,19.976,30.046,39.209,27.759c-0.663-20.722-5.274-23.285-7.622-27.828c2.345-4.553,6.967-7.097,7.63-27.845   C98.54,227.612,97.442,248.07,78.563,257.659z"
   id="path6" />
	<path
   fill="none"
   stroke="#000000"
   stroke-width="2"
   d="M258.095,77.948c0-0.113,0-0.218,0-0.3   c-0.025,0.051-0.054,0.099-0.079,0.15c-0.024-0.048-0.051-0.093-0.075-0.141c0,0.077,0,0.177,0,0.282   c-9.589,18.879-30.046,19.977-27.759,39.209c20.722-0.663,23.285-5.274,27.828-7.622c4.554,2.345,7.097,6.967,27.845,7.63   C288.142,97.924,267.684,96.827,258.095,77.948z"
   id="path7" />
	<path
   fill="none"
   stroke="#000000"
   stroke-width="2"
   d="M437.806,257.812c0.113,0,0.218,0,0.3,0   c-0.052-0.025-0.099-0.054-0.15-0.079c0.049-0.024,0.093-0.051,0.142-0.075c-0.077,0-0.178,0-0.282,0   c-18.88-9.589-19.977-30.046-39.209-27.76c0.662,20.723,5.274,23.286,7.621,27.829c-2.345,4.553-6.967,7.097-7.63,27.844   C417.83,287.858,418.926,267.401,437.806,257.812z"
   id="path8" />
	<path
   fill="none"
   stroke="#000000"
   stroke-width="2"
   d="M423.612,326.236c0.104,0.043,0.201,0.083,0.276,0.114   c-0.037-0.043-0.07-0.088-0.108-0.131c0.055-0.004,0.105-0.012,0.159-0.016c-0.071-0.029-0.164-0.067-0.261-0.107   c-13.836-16.029-7.097-35.375-25.761-40.55c-7.242,19.428-3.946,23.547-3.496,28.641c-3.896,3.324-9.138,3.927-17.615,22.874   C393.737,346.468,402.507,327.953,423.612,326.236z"
   id="path9" />
	<path
   fill="none"
   stroke="#000000"
   stroke-width="2"
   d="M384.863,384.641c0.08,0.08,0.154,0.153,0.213,0.212   c-0.02-0.055-0.032-0.107-0.051-0.162c0.052,0.017,0.102,0.029,0.153,0.047c-0.056-0.055-0.126-0.125-0.2-0.199   c-6.577-20.128,7.107-35.374-8.114-47.352c-14.179,15.127-12.728,20.2-14.278,25.072c-4.877,1.564-9.944,0.096-25.079,14.303   C349.495,391.774,364.731,378.079,384.863,384.641z"
   id="path10" />
	<path
   fill="none"
   stroke="#000000"
   stroke-width="2"
   d="M326.708,423.496c0.045,0.104,0.087,0.2,0.119,0.275   c0.003-0.058,0.011-0.111,0.014-0.169c0.041,0.035,0.084,0.064,0.125,0.1c-0.031-0.07-0.07-0.162-0.113-0.259   c1.271-21.137,19.598-30.295,9.836-47.022c-18.741,8.865-19.254,14.116-22.486,18.079c-5.109-0.337-9.284-3.562-28.578,4.098   C291.19,417.147,310.391,410.003,326.708,423.496z"
   id="path11" />
	<path
   fill="none"
   stroke="#000000"
   stroke-width="2"
   d="M91.578,326.125c-0.105,0.043-0.202,0.083-0.278,0.113   c0.038-0.043,0.071-0.087,0.109-0.13c-0.054-0.004-0.105-0.012-0.159-0.016c0.072-0.029,0.165-0.067,0.261-0.107   c13.836-16.029,7.097-35.376,25.76-40.55c7.242,19.427,3.946,23.546,3.496,28.64c3.896,3.325,9.137,3.928,17.615,22.875   C121.453,346.356,112.683,327.842,91.578,326.125z"
   id="path12" />
	<path
   fill="none"
   stroke="#000000"
   stroke-width="2"
   d="M130.326,384.529c-0.08,0.079-0.154,0.153-0.212,0.212   c0.018-0.055,0.032-0.107,0.05-0.162c-0.051,0.017-0.102,0.029-0.153,0.046c0.055-0.054,0.125-0.125,0.2-0.199   c6.577-20.127-7.107-35.374,8.114-47.351c14.179,15.127,12.729,20.2,14.279,25.072c4.877,1.563,9.945,0.096,25.079,14.303   C165.695,391.663,150.458,377.967,130.326,384.529z"
   id="path13" />
	<path
   fill="none"
   stroke="#000000"
   stroke-width="2"
   d="M188.481,423.385c-0.045,0.104-0.087,0.2-0.12,0.275   c-0.003-0.058-0.01-0.112-0.013-0.169c-0.042,0.034-0.083,0.064-0.125,0.1c0.031-0.071,0.07-0.162,0.112-0.259   c-1.271-21.137-19.597-30.295-9.835-47.023c18.742,8.866,19.255,14.116,22.486,18.079c5.111-0.336,9.286-3.561,28.579,4.098   C223.999,417.037,204.799,409.891,188.481,423.385z"
   id="path14" />
	<path
   fill="none"
   stroke="#000000"
   stroke-width="2"
   d="M92.563,189.333c-0.104-0.043-0.201-0.083-0.277-0.114   c0.038,0.043,0.071,0.087,0.108,0.13c-0.054,0.004-0.105,0.012-0.159,0.016c0.072,0.029,0.164,0.067,0.261,0.107   c13.835,16.03,7.096,35.376,25.76,40.55c7.242-19.427,3.946-23.546,3.496-28.641c3.896-3.324,9.137-3.926,17.615-22.874   C122.438,169.102,113.668,187.617,92.563,189.333z"
   id="path15" />
	<path
   fill="none"
   stroke="#000000"
   stroke-width="2"
   d="M131.312,130.929c-0.08-0.08-0.154-0.153-0.212-0.211   c0.019,0.054,0.032,0.107,0.05,0.162c-0.051-0.017-0.102-0.03-0.153-0.047c0.055,0.055,0.125,0.126,0.2,0.2   c6.577,20.127-7.107,35.374,8.114,47.351c14.179-15.126,12.728-20.199,14.279-25.072c4.877-1.563,9.945-0.096,25.079-14.303   C166.68,123.796,151.444,137.491,131.312,130.929z"
   id="path16" />
	<path
   fill="none"
   stroke="#000000"
   stroke-width="2"
   d="M189.467,92.073c-0.045-0.104-0.086-0.2-0.119-0.275   c-0.003,0.057-0.01,0.112-0.013,0.169c-0.042-0.035-0.083-0.065-0.125-0.1c0.031,0.071,0.071,0.163,0.113,0.259   c-1.271,21.137-19.597,30.295-9.836,47.023c18.742-8.865,19.255-14.116,22.486-18.079c5.11,0.336,9.285,3.562,28.579-4.098   C224.985,98.422,205.785,105.568,189.467,92.073z"
   id="path17" />
	<path
   fill="none"
   stroke="#000000"
   stroke-width="2"
   d="M423.646,189.5c0.105-0.043,0.201-0.083,0.277-0.114   c-0.038,0.043-0.07,0.087-0.108,0.13c0.054,0.004,0.105,0.012,0.159,0.016c-0.072,0.03-0.164,0.067-0.262,0.107   c-13.835,16.029-7.096,35.376-25.76,40.55c-7.242-19.427-3.946-23.546-3.496-28.64c-3.896-3.325-9.137-3.927-17.615-22.875   C393.771,169.269,402.541,187.783,423.646,189.5z"
   id="path18" />
	<path
   fill="none"
   stroke="#000000"
   stroke-width="2"
   d="M384.897,131.096c0.08-0.08,0.153-0.154,0.212-0.212   c-0.019,0.054-0.031,0.107-0.05,0.162c0.052-0.017,0.102-0.03,0.152-0.047c-0.055,0.055-0.125,0.125-0.199,0.199   c-6.577,20.127,7.107,35.374-8.114,47.351c-14.179-15.126-12.728-20.199-14.278-25.072c-4.877-1.563-9.944-0.096-25.079-14.303   C349.529,123.962,364.766,137.658,384.897,131.096z"
   id="path19" />
	<path
   fill="none"
   stroke="#000000"
   stroke-width="2"
   d="M326.743,92.24c0.045-0.104,0.086-0.2,0.119-0.275   c0.002,0.057,0.01,0.112,0.013,0.169c0.042-0.034,0.083-0.064,0.125-0.1c-0.031,0.071-0.071,0.163-0.112,0.259   c1.271,21.136,19.597,30.294,9.835,47.022c-18.741-8.865-19.255-14.116-22.485-18.079c-5.111,0.336-9.286,3.562-28.579-4.098   C291.225,98.588,310.425,105.734,326.743,92.24z"
   id="path20" />
	<path
   fill="none"
   stroke="#000000"
   stroke-width="2"
   d="M258.004,399.003c0,0.094,0,0.18,0,0.248   c0.041-0.042,0.085-0.082,0.126-0.124c0.039,0.04,0.081,0.077,0.119,0.117c0-0.064,0-0.147,0-0.234   c15.252-15.661,47.52-8.44,44.152-32.525c-9.55,3.335-24.05,6.585-34.217,8.167c-3.666,2.584-6.833,1.918-10.083,5.25   c-3.417-3.332-7.75-3.332-9.417-5.082c-6.083-0.834-16.167-1.5-34.834-8.342C213.435,391.901,242.752,383.342,258.004,399.003z"
   id="path21" />
	<path
   fill="none"
   stroke="#000000"
   stroke-width="2"
   d="M258.16,116.261c0-0.094,0-0.18,0-0.249   c-0.041,0.042-0.085,0.082-0.126,0.124c-0.039-0.04-0.081-0.077-0.119-0.117c0,0.064,0,0.147,0,0.234   c-15.251,15.661-47.519,8.441-44.153,32.525c9.55-3.334,24.05-6.584,34.217-8.167c3.667-2.583,6.833-1.917,10.083-5.25   c3.417,3.333,7.75,3.333,9.417,5.083c6.082,0.833,16.166,1.5,34.834,8.341C302.729,123.362,273.411,131.922,258.16,116.261z"
   id="path22" />
	<path
   fill="none"
   stroke="#000000"
   stroke-width="2"
   d="M116.442,257.573c-0.094,0-0.18,0-0.249,0   c0.042,0.041,0.082,0.085,0.125,0.126c-0.04,0.039-0.077,0.081-0.117,0.119c0.064,0,0.147,0,0.234,0   c15.661,15.251,8.44,47.52,32.525,44.153c-3.334-9.55-6.584-24.05-8.167-34.217c-2.583-3.667-1.917-6.833-5.25-10.083   c3.333-3.417,3.333-7.75,5.083-9.417c0.833-6.083,1.5-16.167,8.341-34.834C123.543,213.004,132.104,242.321,116.442,257.573z"
   id="path23" />
	<path
   fill="none"
   stroke="#000000"
   stroke-width="2"
   d="M399.618,257.852c0.094,0,0.181,0,0.248,0   c-0.042-0.041-0.081-0.085-0.123-0.126c0.039-0.039,0.076-0.081,0.116-0.119c-0.063,0-0.147,0-0.233,0   c-15.662-15.251-8.441-47.52-32.525-44.153c3.334,9.55,6.584,24.05,8.167,34.217c2.584,3.667,1.917,6.833,5.25,10.083   c-3.333,3.417-3.333,7.75-5.083,9.417c-0.833,6.083-1.5,16.167-8.342,34.834C392.518,302.421,383.957,273.103,399.618,257.852z"
   id="path24" />
	<path
   fill="none"
   stroke="#000000"
   stroke-width="2"
   d="M357.798,357.952c0.066,0.065,0.128,0.127,0.176,0.175   c-0.002-0.06,0.003-0.118,0.001-0.177c0.056,0,0.111-0.004,0.167-0.002c-0.045-0.046-0.104-0.104-0.166-0.165   c-0.372-21.857,27.483-39.674,8.018-54.25c-4.361,9.127-12.268,21.708-18.307,30.039c-0.749,4.422-3.453,6.2-3.377,10.854   c-4.772,0.077-7.825,3.153-10.241,3.103c-4.876,3.731-12.453,10.418-30.459,18.849   C321.362,384.583,335.938,357.744,357.798,357.952z"
   id="path25" />
	<path
   fill="none"
   stroke="#000000"
   stroke-width="2"
   d="M158.331,357.629c-0.066,0.065-0.128,0.126-0.176,0.175   c0.001-0.059-0.002-0.119-0.001-0.178c-0.055,0.001-0.111-0.003-0.167-0.002c0.045-0.045,0.104-0.104,0.166-0.165   c0.372-21.857-27.483-39.673-8.018-54.25c4.361,9.128,12.269,21.708,18.307,30.04c0.75,4.422,3.454,6.2,3.377,10.854   c4.773,0.077,7.825,3.152,10.241,3.103c4.877,3.73,12.453,10.418,30.459,18.848C194.767,384.259,180.19,357.421,158.331,357.629z"
   id="path26" />
	<path
   fill="none"
   stroke="#000000"
   stroke-width="2"
   d="M158.125,157.521c-0.065-0.067-0.126-0.129-0.174-0.178   c0.001,0.059-0.004,0.119-0.003,0.177c-0.056-0.001-0.111,0.001-0.167,0c0.045,0.046,0.103,0.105,0.164,0.167   c0.058,21.86-28.05,39.274-8.796,54.129c4.492-9.063,12.579-21.529,18.736-29.773c0.813-4.411,3.542-6.15,3.532-10.805   c4.773-0.009,7.87-3.04,10.285-2.956c4.93-3.66,12.601-10.238,30.726-18.408C194.939,131.416,179.979,158.042,158.125,157.521z"
   id="path27" />
	<path
   fill="none"
   stroke="#000000"
   stroke-width="2"
   d="M357.886,157.707c0.066-0.066,0.128-0.127,0.177-0.175   c-0.002,0.059,0.002,0.118,0.001,0.177c0.055-0.001,0.111,0.003,0.167,0.002c-0.046,0.045-0.104,0.104-0.167,0.165   c-0.371,21.857,27.483,39.673,8.019,54.25c-4.361-9.127-12.269-21.708-18.308-30.039c-0.748-4.422-3.452-6.2-3.376-10.855   c-4.772-0.077-7.826-3.152-10.242-3.103c-4.876-3.731-12.452-10.418-30.458-18.848C321.45,131.076,336.026,157.915,357.886,157.707   z"
   id="path28" />
</g>
<g
   id="Layer_2">
</g>
<g
   id="Layer_3">
	<polygon
   fill="none"
   stroke="#000000"
   stroke-width="2"
   points="370.176,228.753 258.084,374.04 145.992,228.753  "
   id="polygon28" />
	<polygon
   fill="none"
   stroke="#000000"
   stroke-width="2"
   points="320.362,170.753 258.091,271.901 195.805,170.753  "
   id="polygon29" />
	<polygon
   fill="none"
   stroke="#000000"
   stroke-width="2"
   points="344.323,199.543 258.084,330.59 171.845,199.543  "
   id="polygon30" />
	<polygon
   fill="none"
   stroke="#000000"
   stroke-width="2"
   points="145.992,287.176 258.084,141.89 370.176,287.176  "
   id="polygon31" />
	<polygon
   fill="none"
   stroke="#000000"
   stroke-width="2"
   points="195.805,345.176 258.084,243.671 320.362,345.176  "
   id="polygon32" />
	<polygon
   fill="none"
   stroke="#000000"
   stroke-width="2"
   points="171.845,316.386 258.084,185.339 344.323,316.386  "
   id="polygon33" />
</g>
<g
   id="Layer_4">
	<polygon
   fill="none"
   stroke="#000000"
   stroke-width="2"
   points="220.984,272.479 258.084,213.73 295.183,272.479  "
   id="polygon34" />
	<polygon
   fill="none"
   stroke="#000000"
   stroke-width="2"
   points="275.769,258.024 258.084,286.401 240.602,258.024  "
   id="polygon35" />
	<polygon
   fill="none"
   stroke="#000000"
   stroke-width="2"
   points="295.183,243.195 258.084,301.944 220.984,243.195  "
   id="polygon36" />
	<circle
   cx="258.084"
   cy="263.11"
   r="1.508"
   id="circle36" />
</g>
<path
   style="fill:#d53e00;stroke:none;stroke-width:0;stroke-linecap:round;stroke-dasharray:none;stroke-opacity:1;fill-opacity:1"
   d="m 287.34073,227.39901 c 0,-0.46409 14.01778,-23.32362 14.89391,-24.28828 0.58784,-0.64724 2.65986,1.66806 9.89253,11.05399 5.03192,6.53 9.37721,12.25038 9.65619,12.71197 0.41589,0.6881 -2.64011,0.83925 -16.96769,0.83925 -9.61122,0 -17.47494,-0.14262 -17.47494,-0.31693 z"
   id="path36" /><path
   style="fill:#44aa00;stroke:none;stroke-width:0;stroke-linecap:round;stroke-dasharray:none;stroke-opacity:1"
   d="m 239.13346,169.02996 c 0,-0.71485 18.66263,-24.42356 19.09871,-24.2627 0.42277,0.15596 17.39109,21.93256 18.54465,23.79963 0.38775,0.62758 -3.48505,0.79288 -18.57674,0.79288 -10.48664,0 -19.06662,-0.14841 -19.06662,-0.32981 z"
   id="path37" /><path
   style="fill:#44aa00;stroke:none;stroke-width:0;stroke-linecap:round;stroke-dasharray:none;stroke-opacity:1"
   d="m 292.7511,184.54321 c -5.1413,-6.65045 -9.21832,-12.22123 -9.06004,-12.37951 0.15828,-0.15828 7.89959,-0.21168 17.20291,-0.11867 l 16.91512,0.16912 -7.46393,12.20384 c -4.10516,6.71211 -7.63995,12.20679 -7.85508,12.21039 -0.21514,0.004 -4.59768,-5.43472 -9.73898,-12.08517 z"
   id="path38" /><path
   style="fill:#44aa00;stroke:none;stroke-width:0;stroke-linecap:round;stroke-dasharray:none;stroke-opacity:1"
   d="m 315.4018,213.88002 -9.63242,-12.48779 17.52205,-0.16877 c 9.63713,-0.0928 17.63272,-0.0581 17.76798,0.0771 0.13526,0.13526 -3.41508,5.83071 -7.88963,12.65657 l -8.13555,12.41064 z"
   id="path39" /><path
   style="fill:#44aa00;stroke:none;stroke-width:0;stroke-linecap:round;stroke-dasharray:none;stroke-opacity:1"
   d="m 338.27854,243.53568 c -5.16491,-6.67052 -9.4859,-12.38794 -9.60219,-12.70537 -0.12408,-0.3387 7.82558,-0.57714 19.24238,-0.57714 h 19.45382 l -3.13666,3.96441 c -1.72517,2.18043 -6.1584,7.89784 -9.85164,12.70536 l -6.71497,8.74095 z"
   id="path40" /><path
   style="fill:#44aa00;stroke:none;stroke-width:0;stroke-linecap:round;stroke-dasharray:none;stroke-opacity:1"
   d="m 329.58637,283.69347 c 7.1733,-9.47612 17.56606,-22.70631 17.94815,-22.84835 0.38455,-0.14296 17.67875,21.72684 19.28459,24.38678 0.41674,0.6903 -3.0204,0.84022 -19.26305,0.84022 h -19.7703 z"
   id="path41" /><path
   style="fill:#44aa00;stroke:none;stroke-width:0;stroke-linecap:round;stroke-dasharray:none;stroke-opacity:1"
   d="m 305.73561,314.90739 c 0,-0.406 16.77413,-22.28841 18.36709,-23.96048 1.05514,-1.10755 1.14106,-1.08353 2.26933,0.6343 0.64496,0.98199 4.39542,6.70923 8.33435,12.72721 l 7.16169,10.94178 h -18.06623 c -9.93643,0 -18.06623,-0.15426 -18.06623,-0.34281 z"
   id="path42" /><path
   style="fill:#44aa00;stroke:none;stroke-width:0;stroke-linecap:round;stroke-dasharray:none;stroke-opacity:1"
   d="m 283.53489,343.55451 c 0,-0.42713 18.47451,-24.17691 18.91729,-24.319 0.23598,-0.0757 3.14071,4.33634 6.45496,9.80459 3.31425,5.46824 6.68433,11.02488 7.48905,12.34807 l 1.46314,2.40582 h -17.16222 c -9.43922,0 -17.16222,-0.10777 -17.16222,-0.23948 z"
   id="path43" /><path
   style="fill:#44aa00;stroke:none;stroke-width:0;stroke-linecap:round;stroke-dasharray:none;stroke-opacity:1"
   d="m 248.2813,359.14377 -9.56418,-12.49541 19.01647,-0.16802 c 10.45907,-0.0924 19.14289,-0.0416 19.29738,0.11288 0.2366,0.23661 -18.72263,25.17217 -19.06761,25.0781 -0.0648,-0.0177 -4.42175,-5.65508 -9.68206,-12.52755 z"
   id="path44" /><path
   style="fill:#44aa00;stroke:none;stroke-width:0;stroke-linecap:round;stroke-dasharray:none;stroke-opacity:1"
   d="m 198.708,343.31826 c 1.23438,-2.39668 14.81146,-24.25244 15.05321,-24.23195 0.26695,0.0226 9.16189,11.45842 17.02846,21.89269 l 2.12227,2.81499 h -17.22448 c -9.47346,0 -17.11422,-0.21408 -16.97946,-0.47573 z"
   id="path45" /><path
   style="fill:#44aa00;stroke:none;stroke-width:0;stroke-linecap:round;stroke-dasharray:none;stroke-opacity:1"
   d="m 174.84678,314.45732 c 0.26808,-0.43608 4.02169,-6.17993 8.34135,-12.76411 6.52686,-9.94848 7.99234,-11.82408 8.67313,-11.10036 1.01086,1.07461 17.67157,22.76762 18.32845,23.86447 0.37543,0.6269 -3.32531,0.79288 -17.67776,0.79288 -14.35917,0 -18.05074,-0.16569 -17.66517,-0.79288 z"
   id="path46" /><path
   style="fill:#44aa00;stroke:none;stroke-width:0;stroke-linecap:round;stroke-dasharray:none;stroke-opacity:1"
   d="m 149.06197,285.76971 c 0,-0.57205 19.13523,-25.06982 19.55778,-25.03874 0.23257,0.0171 2.42093,2.65241 4.86301,5.85622 2.44208,3.20381 6.80871,8.89857 9.70362,12.65502 l 5.26348,6.82991 h -19.69394 c -10.83167,0 -19.69395,-0.13609 -19.69395,-0.30241 z"
   id="path47" /><path
   style="fill:#44aa00;stroke:none;stroke-width:0;stroke-linecap:round;stroke-dasharray:none;stroke-opacity:1"
   d="m 158.79173,243.06792 -9.61658,-12.4976 9.81474,-0.17488 c 5.39811,-0.0962 14.11419,-0.0962 19.36908,0 l 9.55433,0.17488 -9.03242,11.73467 c -4.96783,6.45406 -9.35645,12.07798 -9.75249,12.49759 -0.5487,0.58135 -3.00884,-2.21151 -10.33666,-11.73466 z"
   id="path48" /><path
   style="fill:#44aa00;stroke:none;stroke-width:0;stroke-linecap:round;stroke-dasharray:none;stroke-opacity:1"
   d="m 182.80594,213.6898 -8.3271,-12.61472 h 18.097 18.09699 l -5.25986,6.81879 c -2.89292,3.75034 -7.28937,9.42696 -9.76989,12.61472 l -4.51003,5.79592 z"
   id="path49" /><path
   style="fill:#44aa00;stroke:none;stroke-width:0;stroke-linecap:round;stroke-dasharray:none;stroke-opacity:1"
   d="m 205.91316,184.52645 c -4.09457,-6.67547 -7.32918,-12.25271 -7.18801,-12.39388 0.14116,-0.14116 7.88786,-0.18055 17.21488,-0.0875 l 16.95823,0.16912 -9.27586,12.05181 c -5.10173,6.62851 -9.49832,12.12965 -9.77021,12.22477 -0.27189,0.0951 -3.84445,-5.28881 -7.93903,-11.96428 z"
   id="path50" /><path
   style="fill:#d53e00;fill-opacity:1;stroke:none;stroke-width:0;stroke-linecap:round;stroke-dasharray:none;stroke-opacity:1"
   d="m 303.55483,251.97702 c -1.02499,-1.6565 -4.66743,-7.22203 -8.0943,-12.36784 l -6.23067,-9.35601 h 16.57181 16.57181 l -0.93161,1.42719 c -0.51238,0.78495 -4.14306,6.35099 -8.06818,12.36897 -3.92512,6.01798 -7.32077,10.94127 -7.5459,10.94065 -0.22513,-6.3e-4 -1.24796,-1.35646 -2.27296,-3.01296 z"
   id="path51" /><path
   style="fill:#d53e00;fill-opacity:1;stroke:none;stroke-width:0;stroke-linecap:round;stroke-dasharray:none;stroke-opacity:1"
   d="m 289.65176,285.27923 c 0.26564,-0.43608 4.01835,-6.19511 8.33937,-12.79784 l 7.85639,-12.00496 8.16645,12.32211 c 4.49155,6.77717 8.17706,12.5362 8.19003,12.79785 0.013,0.26165 -7.41466,0.47573 -16.50582,0.47573 -13.05824,0 -16.42798,-0.16651 -16.04642,-0.79289 z"
   id="path52" /><path
   style="fill:#d53e00;fill-opacity:1;stroke:none;stroke-width:0;stroke-linecap:round;stroke-dasharray:none;stroke-opacity:1"
   d="m 295.115,301.38407 -7.64504,-12.45757 8.85405,-0.17623 c 4.86973,-0.0969 12.6442,-0.0969 17.27661,0 l 8.42255,0.17623 -9.63156,12.45757 -9.63157,12.45758 z"
   id="path53" /><path
   style="fill:#d53e00;fill-opacity:1;stroke:none;stroke-width:0;stroke-linecap:round;stroke-dasharray:none;stroke-opacity:1"
   d="m 270.32018,314.72763 c 0.11629,-0.28742 3.60933,-5.69988 7.76231,-12.02769 l 7.55087,-11.50511 7.19675,11.75022 c 3.95821,6.46263 7.19674,11.87509 7.19674,12.02769 0,0.15261 -6.73157,0.27746 -14.95905,0.27746 -8.22748,0 -14.86391,-0.23515 -14.74762,-0.52257 z"
   id="path54" /><path
   style="fill:#d53e00;fill-opacity:1;stroke:none;stroke-width:0;stroke-linecap:round;stroke-dasharray:none;stroke-opacity:1"
   d="m 216.29843,314.83356 c 0,-0.22915 3.20682,-5.64182 7.12626,-12.02815 l 7.12627,-11.61152 7.33654,11.23528 c 4.0351,6.1794 7.55292,11.59207 7.81737,12.02815 0.3793,0.62548 -2.67433,0.79288 -14.46281,0.79288 -8.219,0 -14.94363,-0.18748 -14.94363,-0.41664 z"
   id="path55" /><path
   style="fill:#d53e00;fill-opacity:1;stroke:none;stroke-width:0;stroke-linecap:round;stroke-dasharray:none;stroke-opacity:1"
   d="m 204.55816,302.407 c -4.88108,-6.32749 -9.24767,-12.02049 -9.70353,-12.6511 -0.79387,-1.09817 -0.093,-1.14656 16.60561,-1.14656 h 17.43447 l -7.26899,11.82563 c -3.99794,6.5041 -7.47686,12.19709 -7.73093,12.65109 -0.30661,0.54788 -3.44632,-3.04326 -9.33663,-10.67906 z"
   id="path56" /><path
   style="fill:#d53e00;fill-opacity:1;stroke:none;stroke-width:0;stroke-linecap:round;stroke-dasharray:none;stroke-opacity:1"
   d="m 201.47321,273.86172 c 4.38645,-6.71572 8.18504,-12.43449 8.44132,-12.70839 0.48182,-0.51495 1.32383,0.67361 11.24993,15.87992 l 5.90022,9.03887 h -16.78341 -16.78341 z"
   id="path57" /><path
   style="fill:#d53e00;fill-opacity:1;stroke:none;stroke-width:0;stroke-linecap:round;stroke-dasharray:none;stroke-opacity:1"
   d="m 202.34369,243.39283 c -4.36085,-6.65334 -8.02397,-12.33159 -8.14026,-12.61832 -0.11629,-0.28674 7.09101,-0.52134 16.01623,-0.52134 8.92522,0 16.22767,0.12502 16.22767,0.27781 0,0.1528 -3.63933,5.83105 -8.0874,12.61833 l -8.08741,12.34052 z"
   id="path58" /><path
   style="fill:#d53e00;fill-opacity:1;stroke:none;stroke-width:0;stroke-linecap:round;stroke-dasharray:none;stroke-opacity:1"
   d="m 194.09771,227.41414 c 0,-0.38093 19.02483,-25.07045 19.31836,-25.07045 0.17068,0 14.38091,22.9854 15.39173,24.89652 0.13839,0.26165 -7.61476,0.47573 -17.22923,0.47573 -9.61447,0 -17.48086,-0.13581 -17.48086,-0.3018 z"
   id="path59" /><path
   style="fill:#d53e00;fill-opacity:1;stroke:none;stroke-width:0;stroke-linecap:round;stroke-dasharray:none;stroke-opacity:1"
   d="m 224.20304,214.28343 c -3.47536,-5.63529 -6.68476,-10.91251 -7.13198,-11.72716 l -0.81315,-1.48119 h 14.90603 14.90603 l -7.37266,11.25894 c -4.05497,6.19241 -7.55329,11.46964 -7.77405,11.72716 -0.22075,0.25753 -3.24485,-4.14246 -6.72022,-9.77775 z"
   id="path60" /><path
   style="fill:#d53e00;fill-opacity:1;stroke:none;stroke-width:0;stroke-linecap:round;stroke-dasharray:none;stroke-opacity:1"
   d="m 277.9244,212.96431 -7.70271,-11.57208 7.64444,-0.17839 c 4.20444,-0.0981 10.9031,-0.0981 14.88592,0 l 7.24149,0.17839 -1.82902,2.85438 c -1.00597,1.56991 -4.23841,6.77735 -7.18322,11.57208 l -5.35419,8.7177 z"
   id="path61" /><path
   style="fill:#d53e00;fill-opacity:1;stroke:none;stroke-width:0;stroke-linecap:round;stroke-dasharray:none;stroke-opacity:1"
   d="m 252.17249,196.79351 c 4.02858,-6.20166 5.58204,-8.40283 5.92138,-8.39027 0.21226,0.008 1.88605,2.29136 3.71953,5.07445 l 3.3336,5.06017 h -7.05382 -7.05381 z"
   id="path62" /><path
   style="fill:#d53e00;fill-opacity:1;stroke:none;stroke-width:0;stroke-linecap:round;stroke-dasharray:none;stroke-opacity:1"
   d="m 254.97846,323.37507 c -1.56295,-2.5087 -2.93687,-4.7922 -3.05316,-5.07445 -0.11629,-0.28226 2.66673,-0.51319 6.18448,-0.51319 3.51776,0 6.39593,0.15561 6.39593,0.3458 0,0.37489 -6.28376,9.8031 -6.53362,9.8031 -0.0835,0 -1.43067,-2.05257 -2.99363,-4.56126 z"
   id="path63" /></svg>
